<?xml version="1.0" encoding="us-ascii" standalone="no"?><svg xmlns="http://www.w3.org/2000/svg" xmlns:xlink="http://www.w3.org/1999/xlink" contentStyleType="text/css" height="598px" preserveAspectRatio="none" style="width:1531px;height:598px;background:#FFFFFF;" version="1.1" viewBox="0 0 1531 598" width="1531px" zoomAndPan="magnify"><defs/><g><!--class Poligono--><g id="elem_Poligono"><rect codeLine="1" fill="#F1F1F1" height="80.9766" id="Poligono" rx="2.5" ry="2.5" style="stroke:#181818;stroke-width:0.5;" width="513" x="7" y="510.72"/><ellipse cx="228.75" cy="526.72" fill="#ADD1B2" rx="11" ry="11" style="stroke:#181818;stroke-width:1.0;"/><path d="M231.2231,532.8631 Q230.6421,533.1619 230.0029,533.3113 Q229.3638,533.4607 228.6582,533.4607 Q226.1514,533.4607 224.8315,531.8089 Q223.5117,530.157 223.5117,527.0359 Q223.5117,523.9065 224.8315,522.2547 Q226.1514,520.6028 228.6582,520.6028 Q229.3638,520.6028 230.0112,520.7522 Q230.6587,520.9016 231.2231,521.2005 L231.2231,523.9231 Q230.5923,523.3421 229.9988,523.0723 Q229.4053,522.8025 228.7744,522.8025 Q227.4297,522.8025 226.7449,523.8692 Q226.0601,524.9358 226.0601,527.0359 Q226.0601,529.1277 226.7449,530.1944 Q227.4297,531.261 228.7744,531.261 Q229.4053,531.261 229.9988,530.9912 Q230.5923,530.7215 231.2231,530.1404 Z " fill="#000000"/><text fill="#000000" font-family="sans-serif" font-size="14" lengthAdjust="spacing" textLength="61" x="249.25" y="532.011">Poligono</text><line style="stroke:#181818;stroke-width:0.5;" x1="8" x2="519" y1="542.72" y2="542.72"/><line style="stroke:#181818;stroke-width:0.5;" x1="8" x2="519" y1="550.72" y2="550.72"/><ellipse cx="18" cy="564.4641" fill="#84BE84" rx="3" ry="3" style="stroke:#038048;stroke-width:1.0;"/><text fill="#000000" font-family="sans-serif" font-size="14" lengthAdjust="spacing" textLength="487" x="27" y="568.2552">Poligono(_paiRef:Objeto, _rotulo:char, pontosPoligono:List&lt;Ponto4D&gt;)</text><ellipse cx="18" cy="580.9524" fill="#84BE84" rx="3" ry="3" style="stroke:#038048;stroke-width:1.0;"/><text fill="#000000" font-family="sans-serif" font-size="14" lengthAdjust="spacing" textLength="196" x="27" y="584.7434">&#171;override&#187; ToString() : string</text></g><!--class Objeto--><g id="elem_Objeto"><rect codeLine="1" fill="#F1F1F1" height="443.7188" id="Objeto" rx="2.5" ry="2.5" style="stroke:#181818;stroke-width:0.5;" width="442" x="395.5" y="7"/><ellipse cx="589.25" cy="23" fill="#ADD1B2" rx="11" ry="11" style="stroke:#181818;stroke-width:1.0;"/><path d="M591.7231,29.1431 Q591.1421,29.4419 590.5029,29.5913 Q589.8638,29.7407 589.1582,29.7407 Q586.6514,29.7407 585.3315,28.0889 Q584.0117,26.437 584.0117,23.3159 Q584.0117,20.1865 585.3315,18.5347 Q586.6514,16.8828 589.1582,16.8828 Q589.8638,16.8828 590.5112,17.0322 Q591.1587,17.1816 591.7231,17.4805 L591.7231,20.2031 Q591.0923,19.6221 590.4988,19.3523 Q589.9053,19.0825 589.2744,19.0825 Q587.9297,19.0825 587.2449,20.1492 Q586.5601,21.2158 586.5601,23.3159 Q586.5601,25.4077 587.2449,26.4744 Q587.9297,27.541 589.2744,27.541 Q589.9053,27.541 590.4988,27.2712 Q591.0923,27.0015 591.7231,26.4204 Z " fill="#000000"/><text fill="#000000" font-family="sans-serif" font-size="14" lengthAdjust="spacing" textLength="46" x="609.75" y="28.291">Objeto</text><line style="stroke:#181818;stroke-width:0.5;" x1="396.5" x2="836.5" y1="39" y2="39"/><ellipse cx="406.5" cy="52.7441" fill="none" rx="3" ry="3" style="stroke:#038048;stroke-width:1.0;"/><text fill="#000000" font-family="sans-serif" font-size="14" lengthAdjust="spacing" textLength="245" x="415.5" y="56.5352">PrimitivaTamanho : float &#171;get&#187; &#171;set&#187;</text><ellipse cx="406.5" cy="69.2324" fill="none" rx="3" ry="3" style="stroke:#038048;stroke-width:1.0;"/><text fill="#000000" font-family="sans-serif" font-size="14" lengthAdjust="spacing" textLength="213" x="415.5" y="73.0234">PontosListaTamanho : int &#171;get&#187;</text><line style="stroke:#181818;stroke-width:0.5;" x1="396.5" x2="836.5" y1="79.9766" y2="79.9766"/><ellipse cx="406.5" cy="93.7207" fill="#84BE84" rx="3" ry="3" style="stroke:#038048;stroke-width:1.0;"/><text fill="#000000" font-family="sans-serif" font-size="14" lengthAdjust="spacing" textLength="91" x="415.5" y="97.5117">Bbox() : BBox</text><ellipse cx="406.5" cy="110.209" fill="#84BE84" rx="3" ry="3" style="stroke:#038048;stroke-width:1.0;"/><text fill="#000000" font-family="sans-serif" font-size="14" lengthAdjust="spacing" textLength="239" x="415.5" y="114">TrocaEixoRotacao(eixo:char) : void</text><ellipse cx="406.5" cy="126.6973" fill="#84BE84" rx="3" ry="3" style="stroke:#038048;stroke-width:1.0;"/><text fill="#000000" font-family="sans-serif" font-size="14" lengthAdjust="spacing" textLength="383" x="415.5" y="130.4883">Objeto(_paiRef:Objeto, _rotulo:char, objetoFilho:Objeto)</text><ellipse cx="406.5" cy="143.1855" fill="#84BE84" rx="3" ry="3" style="stroke:#038048;stroke-width:1.0;"/><text fill="#000000" font-family="sans-serif" font-size="14" lengthAdjust="spacing" textLength="159" x="415.5" y="146.9766">ObjetoAtualizar() : void</text><ellipse cx="406.5" cy="159.6738" fill="#84BE84" rx="3" ry="3" style="stroke:#038048;stroke-width:1.0;"/><text fill="#000000" font-family="sans-serif" font-size="14" lengthAdjust="spacing" textLength="325" x="415.5" y="163.4648">Desenhar(matrizGrafo:Transformacao4D) : void</text><ellipse cx="406.5" cy="176.1621" fill="#84BE84" rx="3" ry="3" style="stroke:#038048;stroke-width:1.0;"/><text fill="#000000" font-family="sans-serif" font-size="14" lengthAdjust="spacing" textLength="232" x="415.5" y="179.9531">FilhoAdicionar(filho:Objeto) : void</text><ellipse cx="406.5" cy="192.6504" fill="#84BE84" rx="3" ry="3" style="stroke:#038048;stroke-width:1.0;"/><text fill="#000000" font-family="sans-serif" font-size="14" lengthAdjust="spacing" textLength="176" x="415.5" y="196.4414">PontosId(id:int) : Ponto4D</text><ellipse cx="406.5" cy="209.1387" fill="#84BE84" rx="3" ry="3" style="stroke:#038048;stroke-width:1.0;"/><text fill="#000000" font-family="sans-serif" font-size="14" lengthAdjust="spacing" textLength="250" x="415.5" y="212.9297">PontosAdicionar(pto:Ponto4D) : void</text><ellipse cx="406.5" cy="225.627" fill="#84BE84" rx="3" ry="3" style="stroke:#038048;stroke-width:1.0;"/><text fill="#000000" font-family="sans-serif" font-size="14" lengthAdjust="spacing" textLength="314" x="415.5" y="229.418">PontosAlterar(pto:Ponto4D, posicao:int) : void</text><ellipse cx="406.5" cy="242.1152" fill="#84BE84" rx="3" ry="3" style="stroke:#038048;stroke-width:1.0;"/><text fill="#000000" font-family="sans-serif" font-size="14" lengthAdjust="spacing" textLength="145" x="415.5" y="245.9063">PontosLimpar() : void</text><ellipse cx="406.5" cy="258.6035" fill="#84BE84" rx="3" ry="3" style="stroke:#038048;stroke-width:1.0;"/><text fill="#000000" font-family="sans-serif" font-size="14" lengthAdjust="spacing" textLength="260" x="415.5" y="262.3945">GrafocenaBusca(_rotulo:char) : Objeto</text><ellipse cx="406.5" cy="275.0918" fill="#84BE84" rx="3" ry="3" style="stroke:#038048;stroke-width:1.0;"/><text fill="#000000" font-family="sans-serif" font-size="14" lengthAdjust="spacing" textLength="365" x="415.5" y="278.8828">GrafocenaBuscaProximo(objetoAtual:Objeto) : Objeto</text><ellipse cx="406.5" cy="291.5801" fill="#84BE84" rx="3" ry="3" style="stroke:#038048;stroke-width:1.0;"/><text fill="#000000" font-family="sans-serif" font-size="14" lengthAdjust="spacing" textLength="242" x="415.5" y="295.3711">GrafocenaImprimir(idt:string) : void</text><ellipse cx="406.5" cy="308.0684" fill="#84BE84" rx="3" ry="3" style="stroke:#038048;stroke-width:1.0;"/><text fill="#000000" font-family="sans-serif" font-size="14" lengthAdjust="spacing" textLength="153" x="415.5" y="311.8594">MatrizImprimir() : void</text><ellipse cx="406.5" cy="324.5566" fill="#84BE84" rx="3" ry="3" style="stroke:#038048;stroke-width:1.0;"/><text fill="#000000" font-family="sans-serif" font-size="14" lengthAdjust="spacing" textLength="220" x="415.5" y="328.3477">MatrizAtribuirIdentidade() : void</text><ellipse cx="406.5" cy="341.0449" fill="#84BE84" rx="3" ry="3" style="stroke:#038048;stroke-width:1.0;"/><text fill="#000000" font-family="sans-serif" font-size="14" lengthAdjust="spacing" textLength="406" x="415.5" y="344.8359">MatrizTranslacaoXYZ(tx:double, ty:double, tz:double) : void</text><ellipse cx="406.5" cy="357.5332" fill="#84BE84" rx="3" ry="3" style="stroke:#038048;stroke-width:1.0;"/><text fill="#000000" font-family="sans-serif" font-size="14" lengthAdjust="spacing" textLength="382" x="415.5" y="361.3242">MatrizEscalaXYZ(Sx:double, Sy:double, Sz:double) : void</text><ellipse cx="406.5" cy="374.0215" fill="#84BE84" rx="3" ry="3" style="stroke:#038048;stroke-width:1.0;"/><text fill="#000000" font-family="sans-serif" font-size="14" lengthAdjust="spacing" textLength="416" x="415.5" y="377.8125">MatrizEscalaXYZBBox(Sx:double, Sy:double, Sz:double) : void</text><ellipse cx="406.5" cy="390.5098" fill="#84BE84" rx="3" ry="3" style="stroke:#038048;stroke-width:1.0;"/><text fill="#000000" font-family="sans-serif" font-size="14" lengthAdjust="spacing" textLength="279" x="415.5" y="394.3008">MatrizRotacaoEixo(angulo:double) : void</text><ellipse cx="406.5" cy="406.998" fill="#84BE84" rx="3" ry="3" style="stroke:#038048;stroke-width:1.0;"/><text fill="#000000" font-family="sans-serif" font-size="14" lengthAdjust="spacing" textLength="249" x="415.5" y="410.7891">MatrizRotacao(angulo:double) : void</text><ellipse cx="406.5" cy="423.4863" fill="#84BE84" rx="3" ry="3" style="stroke:#038048;stroke-width:1.0;"/><text fill="#000000" font-family="sans-serif" font-size="14" lengthAdjust="spacing" textLength="291" x="415.5" y="427.2773">MatrizRotacaoZBBox(angulo:double) : void</text><ellipse cx="406.5" cy="439.9746" fill="#84BE84" rx="3" ry="3" style="stroke:#038048;stroke-width:1.0;"/><text fill="#000000" font-family="sans-serif" font-size="14" lengthAdjust="spacing" textLength="120" x="415.5" y="443.7656">OnUnload() : void</text></g><!--class Mundo--><g id="elem_Mundo"><rect codeLine="1" fill="#F1F1F1" height="64.4883" id="Mundo" rx="2.5" ry="2.5" style="stroke:#181818;stroke-width:0.5;" width="696" x="828.5" y="518.97"/><ellipse cx="1148.25" cy="534.97" fill="#ADD1B2" rx="11" ry="11" style="stroke:#181818;stroke-width:1.0;"/><path d="M1150.7231,541.1131 Q1150.1421,541.4119 1149.5029,541.5613 Q1148.8638,541.7107 1148.1582,541.7107 Q1145.6514,541.7107 1144.3315,540.0589 Q1143.0117,538.407 1143.0117,535.2859 Q1143.0117,532.1565 1144.3315,530.5047 Q1145.6514,528.8528 1148.1582,528.8528 Q1148.8638,528.8528 1149.5112,529.0022 Q1150.1587,529.1516 1150.7231,529.4505 L1150.7231,532.1731 Q1150.0923,531.5921 1149.4988,531.3223 Q1148.9053,531.0525 1148.2744,531.0525 Q1146.9297,531.0525 1146.2449,532.1192 Q1145.5601,533.1858 1145.5601,535.2859 Q1145.5601,537.3777 1146.2449,538.4444 Q1146.9297,539.511 1148.2744,539.511 Q1148.9053,539.511 1149.4988,539.2412 Q1150.0923,538.9715 1150.7231,538.3904 Z " fill="#000000"/><text fill="#000000" font-family="sans-serif" font-size="14" lengthAdjust="spacing" textLength="48" x="1168.75" y="540.261">Mundo</text><line style="stroke:#181818;stroke-width:0.5;" x1="829.5" x2="1523.5" y1="550.97" y2="550.97"/><line style="stroke:#181818;stroke-width:0.5;" x1="829.5" x2="1523.5" y1="558.97" y2="558.97"/><ellipse cx="839.5" cy="572.7141" fill="#84BE84" rx="3" ry="3" style="stroke:#038048;stroke-width:1.0;"/><text fill="#000000" font-family="sans-serif" font-size="14" lengthAdjust="spacing" textLength="670" x="848.5" y="576.5052">Mundo(gameWindowSettings:GameWindowSettings, nativeWindowSettings:NativeWindowSettings)</text></g><!--class GameWindow--><g id="elem_GameWindow"><rect fill="#F1F1F1" height="48" id="GameWindow" rx="2.5" ry="2.5" style="stroke:#181818;stroke-width:0.5;" width="125" x="1114" y="204.86"/><ellipse cx="1129" cy="220.86" fill="#ADD1B2" rx="11" ry="11" style="stroke:#181818;stroke-width:1.0;"/><path d="M1131.4731,227.0031 Q1130.8921,227.3019 1130.2529,227.4513 Q1129.6138,227.6007 1128.9082,227.6007 Q1126.4014,227.6007 1125.0815,225.9489 Q1123.7617,224.297 1123.7617,221.1759 Q1123.7617,218.0465 1125.0815,216.3947 Q1126.4014,214.7428 1128.9082,214.7428 Q1129.6138,214.7428 1130.2612,214.8922 Q1130.9087,215.0416 1131.4731,215.3405 L1131.4731,218.0631 Q1130.8423,217.4821 1130.2488,217.2123 Q1129.6553,216.9425 1129.0244,216.9425 Q1127.6797,216.9425 1126.9949,218.0092 Q1126.3101,219.0758 1126.3101,221.1759 Q1126.3101,223.2677 1126.9949,224.3344 Q1127.6797,225.401 1129.0244,225.401 Q1129.6553,225.401 1130.2488,225.1312 Q1130.8423,224.8615 1131.4731,224.2804 Z " fill="#000000"/><text fill="#000000" font-family="sans-serif" font-size="14" lengthAdjust="spacing" textLength="93" x="1143" y="226.151">GameWindow</text><line style="stroke:#181818;stroke-width:0.5;" x1="1115" x2="1238" y1="236.86" y2="236.86"/><line style="stroke:#181818;stroke-width:0.5;" x1="1115" x2="1238" y1="244.86" y2="244.86"/></g><!--class PrimitiveType--><g id="elem_PrimitiveType"><rect fill="#F1F1F1" height="48" id="PrimitiveType" rx="2.5" ry="2.5" style="stroke:#181818;stroke-width:0.5;" width="124" x="554.5" y="527.21"/><ellipse cx="569.5" cy="543.21" fill="#ADD1B2" rx="11" ry="11" style="stroke:#181818;stroke-width:1.0;"/><path d="M571.9731,549.3531 Q571.3921,549.6519 570.7529,549.8013 Q570.1138,549.9507 569.4082,549.9507 Q566.9014,549.9507 565.5815,548.2989 Q564.2617,546.647 564.2617,543.5259 Q564.2617,540.3965 565.5815,538.7447 Q566.9014,537.0928 569.4082,537.0928 Q570.1138,537.0928 570.7612,537.2422 Q571.4087,537.3916 571.9731,537.6905 L571.9731,540.4131 Q571.3423,539.8321 570.7488,539.5623 Q570.1553,539.2925 569.5244,539.2925 Q568.1797,539.2925 567.4949,540.3592 Q566.8101,541.4258 566.8101,543.5259 Q566.8101,545.6177 567.4949,546.6844 Q568.1797,547.751 569.5244,547.751 Q570.1553,547.751 570.7488,547.4812 Q571.3423,547.2115 571.9731,546.6304 Z " fill="#000000"/><text fill="#000000" font-family="sans-serif" font-size="14" lengthAdjust="spacing" textLength="92" x="583.5" y="548.501">PrimitiveType</text><line style="stroke:#181818;stroke-width:0.5;" x1="555.5" x2="677.5" y1="559.21" y2="559.21"/><line style="stroke:#181818;stroke-width:0.5;" x1="555.5" x2="677.5" y1="567.21" y2="567.21"/></g><!--class Shader--><g id="elem_Shader"><rect fill="#F1F1F1" height="48" id="Shader" rx="2.5" ry="2.5" style="stroke:#181818;stroke-width:0.5;" width="80" x="713.5" y="527.21"/><ellipse cx="728.5" cy="543.21" fill="#ADD1B2" rx="11" ry="11" style="stroke:#181818;stroke-width:1.0;"/><path d="M730.9731,549.3531 Q730.3921,549.6519 729.7529,549.8013 Q729.1138,549.9507 728.4082,549.9507 Q725.9014,549.9507 724.5815,548.2989 Q723.2617,546.647 723.2617,543.5259 Q723.2617,540.3965 724.5815,538.7447 Q725.9014,537.0928 728.4082,537.0928 Q729.1138,537.0928 729.7612,537.2422 Q730.4087,537.3916 730.9731,537.6905 L730.9731,540.4131 Q730.3423,539.8321 729.7488,539.5623 Q729.1553,539.2925 728.5244,539.2925 Q727.1797,539.2925 726.4949,540.3592 Q725.8101,541.4258 725.8101,543.5259 Q725.8101,545.6177 726.4949,546.6844 Q727.1797,547.751 728.5244,547.751 Q729.1553,547.751 729.7488,547.4812 Q730.3423,547.2115 730.9731,546.6304 Z " fill="#000000"/><text fill="#000000" font-family="sans-serif" font-size="14" lengthAdjust="spacing" textLength="48" x="742.5" y="548.501">Shader</text><line style="stroke:#181818;stroke-width:0.5;" x1="714.5" x2="792.5" y1="559.21" y2="559.21"/><line style="stroke:#181818;stroke-width:0.5;" x1="714.5" x2="792.5" y1="567.21" y2="567.21"/></g><!--class Program--><g id="elem_Program"><rect codeLine="1" fill="#F1F1F1" height="56.6211" id="Program" rx="2.5" ry="2.5" style="stroke:#181818;stroke-width:0.5;" width="91" x="1274" y="200.55"/><ellipse cx="1289" cy="220.8605" fill="#ADD1B2" rx="11" ry="11" style="stroke:#181818;stroke-width:1.0;"/><path d="M1291.4731,227.0036 Q1290.8921,227.3024 1290.2529,227.4519 Q1289.6138,227.6013 1288.9082,227.6013 Q1286.4014,227.6013 1285.0815,225.9494 Q1283.7617,224.2976 1283.7617,221.1765 Q1283.7617,218.0471 1285.0815,216.3952 Q1286.4014,214.7434 1288.9082,214.7434 Q1289.6138,214.7434 1290.2612,214.8928 Q1290.9087,215.0422 1291.4731,215.341 L1291.4731,218.0637 Q1290.8423,217.4826 1290.2488,217.2128 Q1289.6553,216.9431 1289.0244,216.9431 Q1287.6797,216.9431 1286.9949,218.0097 Q1286.3101,219.0764 1286.3101,221.1765 Q1286.3101,223.2683 1286.9949,224.3349 Q1287.6797,225.4016 1289.0244,225.4016 Q1289.6553,225.4016 1290.2488,225.1318 Q1290.8423,224.862 1291.4731,224.281 Z " fill="#000000"/><text fill="#000000" font-family="sans-serif" font-size="12" font-style="italic" lengthAdjust="spacing" textLength="42" x="1311.5" y="217.1516">&#171;static&#187;</text><text fill="#000000" font-family="sans-serif" font-size="14" lengthAdjust="spacing" textLength="59" x="1303" y="233.218">Program</text><line style="stroke:#181818;stroke-width:0.5;" x1="1275" x2="1364" y1="241.1711" y2="241.1711"/><line style="stroke:#181818;stroke-width:0.5;" x1="1275" x2="1364" y1="249.1711" y2="249.1711"/></g><!--reverse link Objeto to Poligono--><g id="link_Objeto_Poligono"><path codeLine="5" d="M381.8686,442.7944 C348.5686,473.0044 330.88,489.06 307.32,510.44 " fill="none" id="Objeto-backto-Poligono" style="stroke:#181818;stroke-width:1.0;"/><polygon fill="none" points="395.2,430.7,377.8371,438.3505,385.9,447.2382,395.2,430.7" style="stroke:#181818;stroke-width:1.0;"/></g><!--reverse link GameWindow to Mundo--><g id="link_GameWindow_Mundo"><path codeLine="4" d="M1176.5,271.16 C1176.5,327.74 1176.5,454.48 1176.5,518.7 " fill="none" id="GameWindow-backto-Mundo" style="stroke:#181818;stroke-width:1.0;"/><polygon fill="none" points="1176.5,253.16,1170.5,271.16,1182.5,271.16,1176.5,253.16" style="stroke:#181818;stroke-width:1.0;"/></g><!--link Objeto to PrimitiveType--><g id="link_Objeto_PrimitiveType"><path codeLine="27" d="M616.5,451.05 C616.5,481.71 616.5,502.87 616.5,520.97 " fill="none" id="Objeto-to-PrimitiveType" style="stroke:#181818;stroke-width:1.0;"/><polygon fill="#181818" points="616.5,526.97,620.5,517.97,616.5,521.97,612.5,517.97,616.5,526.97" style="stroke:#181818;stroke-width:1.0;"/><text fill="#000000" font-family="sans-serif" font-size="13" lengthAdjust="spacing" textLength="83" x="522.8656" y="516.4448">PrimitivaTipo</text></g><!--link Objeto to Shader--><g id="link_Objeto_Shader"><path codeLine="28" d="M711.09,451.05 C724.2,481.71 733.4609,503.3532 741.2009,521.4532 " fill="none" id="Objeto-to-Shader" style="stroke:#181818;stroke-width:1.0;"/><polygon fill="#181818" points="743.56,526.97,743.6992,517.1221,741.5941,522.3727,736.3435,520.2676,743.56,526.97" style="stroke:#181818;stroke-width:1.0;"/><text fill="#000000" font-family="sans-serif" font-size="13" lengthAdjust="spacing" textLength="84" x="681.3566" y="516.4448">ShaderObjeto</text></g><!--SRC=[KypCIyufJKbLqDCFoC_9JC_FozShACtDuL94IFYMvgLWYledPQMMO0e75EMd5oNcOeZd9sNfkwGcbQRhvwMMMEWPwElvkOOuvnUbEXOKw8Ib5XLdvkVPbW4bz1oBYrDpat8g7KjAYZAJIajIYmaRvkmUxsSSxrgHcbkGamytmJCl3U900000]--></g></svg>