<?xml version="1.0" encoding="us-ascii" standalone="no"?><svg xmlns="http://www.w3.org/2000/svg" xmlns:xlink="http://www.w3.org/1999/xlink" contentStyleType="text/css" height="565px" preserveAspectRatio="none" style="width:456px;height:565px;background:#FFFFFF;" version="1.1" viewBox="0 0 456 565" width="456px" zoomAndPan="magnify"><defs/><g><!--class Objeto--><g id="elem_Objeto"><rect codeLine="1" fill="#F1F1F1" height="443.7188" id="Objeto" rx="2.5" ry="2.5" style="stroke:#181818;stroke-width:0.5;" width="442" x="7" y="7"/><ellipse cx="200.75" cy="23" fill="#ADD1B2" rx="11" ry="11" style="stroke:#181818;stroke-width:1.0;"/><path d="M203.2231,29.1431 Q202.6421,29.4419 202.0029,29.5913 Q201.3638,29.7407 200.6582,29.7407 Q198.1514,29.7407 196.8315,28.0889 Q195.5117,26.437 195.5117,23.3159 Q195.5117,20.1865 196.8315,18.5347 Q198.1514,16.8828 200.6582,16.8828 Q201.3638,16.8828 202.0112,17.0322 Q202.6587,17.1816 203.2231,17.4805 L203.2231,20.2031 Q202.5923,19.6221 201.9988,19.3523 Q201.4053,19.0825 200.7744,19.0825 Q199.4297,19.0825 198.7449,20.1492 Q198.0601,21.2158 198.0601,23.3159 Q198.0601,25.4077 198.7449,26.4744 Q199.4297,27.541 200.7744,27.541 Q201.4053,27.541 201.9988,27.2712 Q202.5923,27.0015 203.2231,26.4204 Z " fill="#000000"/><text fill="#000000" font-family="sans-serif" font-size="14" lengthAdjust="spacing" textLength="46" x="221.25" y="28.291">Objeto</text><line style="stroke:#181818;stroke-width:0.5;" x1="8" x2="448" y1="39" y2="39"/><ellipse cx="18" cy="52.7441" fill="none" rx="3" ry="3" style="stroke:#038048;stroke-width:1.0;"/><text fill="#000000" font-family="sans-serif" font-size="14" lengthAdjust="spacing" textLength="245" x="27" y="56.5352">PrimitivaTamanho : float &#171;get&#187; &#171;set&#187;</text><ellipse cx="18" cy="69.2324" fill="none" rx="3" ry="3" style="stroke:#038048;stroke-width:1.0;"/><text fill="#000000" font-family="sans-serif" font-size="14" lengthAdjust="spacing" textLength="213" x="27" y="73.0234">PontosListaTamanho : int &#171;get&#187;</text><line style="stroke:#181818;stroke-width:0.5;" x1="8" x2="448" y1="79.9766" y2="79.9766"/><ellipse cx="18" cy="93.7207" fill="#84BE84" rx="3" ry="3" style="stroke:#038048;stroke-width:1.0;"/><text fill="#000000" font-family="sans-serif" font-size="14" lengthAdjust="spacing" textLength="91" x="27" y="97.5117">Bbox() : BBox</text><ellipse cx="18" cy="110.209" fill="#84BE84" rx="3" ry="3" style="stroke:#038048;stroke-width:1.0;"/><text fill="#000000" font-family="sans-serif" font-size="14" lengthAdjust="spacing" textLength="239" x="27" y="114">TrocaEixoRotacao(eixo:char) : void</text><ellipse cx="18" cy="126.6973" fill="#84BE84" rx="3" ry="3" style="stroke:#038048;stroke-width:1.0;"/><text fill="#000000" font-family="sans-serif" font-size="14" lengthAdjust="spacing" textLength="383" x="27" y="130.4883">Objeto(_paiRef:Objeto, _rotulo:char, objetoFilho:Objeto)</text><ellipse cx="18" cy="143.1855" fill="#84BE84" rx="3" ry="3" style="stroke:#038048;stroke-width:1.0;"/><text fill="#000000" font-family="sans-serif" font-size="14" lengthAdjust="spacing" textLength="159" x="27" y="146.9766">ObjetoAtualizar() : void</text><ellipse cx="18" cy="159.6738" fill="#84BE84" rx="3" ry="3" style="stroke:#038048;stroke-width:1.0;"/><text fill="#000000" font-family="sans-serif" font-size="14" lengthAdjust="spacing" textLength="325" x="27" y="163.4648">Desenhar(matrizGrafo:Transformacao4D) : void</text><ellipse cx="18" cy="176.1621" fill="#84BE84" rx="3" ry="3" style="stroke:#038048;stroke-width:1.0;"/><text fill="#000000" font-family="sans-serif" font-size="14" lengthAdjust="spacing" textLength="232" x="27" y="179.9531">FilhoAdicionar(filho:Objeto) : void</text><ellipse cx="18" cy="192.6504" fill="#84BE84" rx="3" ry="3" style="stroke:#038048;stroke-width:1.0;"/><text fill="#000000" font-family="sans-serif" font-size="14" lengthAdjust="spacing" textLength="176" x="27" y="196.4414">PontosId(id:int) : Ponto4D</text><ellipse cx="18" cy="209.1387" fill="#84BE84" rx="3" ry="3" style="stroke:#038048;stroke-width:1.0;"/><text fill="#000000" font-family="sans-serif" font-size="14" lengthAdjust="spacing" textLength="250" x="27" y="212.9297">PontosAdicionar(pto:Ponto4D) : void</text><ellipse cx="18" cy="225.627" fill="#84BE84" rx="3" ry="3" style="stroke:#038048;stroke-width:1.0;"/><text fill="#000000" font-family="sans-serif" font-size="14" lengthAdjust="spacing" textLength="314" x="27" y="229.418">PontosAlterar(pto:Ponto4D, posicao:int) : void</text><ellipse cx="18" cy="242.1152" fill="#84BE84" rx="3" ry="3" style="stroke:#038048;stroke-width:1.0;"/><text fill="#000000" font-family="sans-serif" font-size="14" lengthAdjust="spacing" textLength="145" x="27" y="245.9063">PontosLimpar() : void</text><ellipse cx="18" cy="258.6035" fill="#84BE84" rx="3" ry="3" style="stroke:#038048;stroke-width:1.0;"/><text fill="#000000" font-family="sans-serif" font-size="14" lengthAdjust="spacing" textLength="260" x="27" y="262.3945">GrafocenaBusca(_rotulo:char) : Objeto</text><ellipse cx="18" cy="275.0918" fill="#84BE84" rx="3" ry="3" style="stroke:#038048;stroke-width:1.0;"/><text fill="#000000" font-family="sans-serif" font-size="14" lengthAdjust="spacing" textLength="365" x="27" y="278.8828">GrafocenaBuscaProximo(objetoAtual:Objeto) : Objeto</text><ellipse cx="18" cy="291.5801" fill="#84BE84" rx="3" ry="3" style="stroke:#038048;stroke-width:1.0;"/><text fill="#000000" font-family="sans-serif" font-size="14" lengthAdjust="spacing" textLength="242" x="27" y="295.3711">GrafocenaImprimir(idt:string) : void</text><ellipse cx="18" cy="308.0684" fill="#84BE84" rx="3" ry="3" style="stroke:#038048;stroke-width:1.0;"/><text fill="#000000" font-family="sans-serif" font-size="14" lengthAdjust="spacing" textLength="153" x="27" y="311.8594">MatrizImprimir() : void</text><ellipse cx="18" cy="324.5566" fill="#84BE84" rx="3" ry="3" style="stroke:#038048;stroke-width:1.0;"/><text fill="#000000" font-family="sans-serif" font-size="14" lengthAdjust="spacing" textLength="220" x="27" y="328.3477">MatrizAtribuirIdentidade() : void</text><ellipse cx="18" cy="341.0449" fill="#84BE84" rx="3" ry="3" style="stroke:#038048;stroke-width:1.0;"/><text fill="#000000" font-family="sans-serif" font-size="14" lengthAdjust="spacing" textLength="406" x="27" y="344.8359">MatrizTranslacaoXYZ(tx:double, ty:double, tz:double) : void</text><ellipse cx="18" cy="357.5332" fill="#84BE84" rx="3" ry="3" style="stroke:#038048;stroke-width:1.0;"/><text fill="#000000" font-family="sans-serif" font-size="14" lengthAdjust="spacing" textLength="382" x="27" y="361.3242">MatrizEscalaXYZ(Sx:double, Sy:double, Sz:double) : void</text><ellipse cx="18" cy="374.0215" fill="#84BE84" rx="3" ry="3" style="stroke:#038048;stroke-width:1.0;"/><text fill="#000000" font-family="sans-serif" font-size="14" lengthAdjust="spacing" textLength="416" x="27" y="377.8125">MatrizEscalaXYZBBox(Sx:double, Sy:double, Sz:double) : void</text><ellipse cx="18" cy="390.5098" fill="#84BE84" rx="3" ry="3" style="stroke:#038048;stroke-width:1.0;"/><text fill="#000000" font-family="sans-serif" font-size="14" lengthAdjust="spacing" textLength="279" x="27" y="394.3008">MatrizRotacaoEixo(angulo:double) : void</text><ellipse cx="18" cy="406.998" fill="#84BE84" rx="3" ry="3" style="stroke:#038048;stroke-width:1.0;"/><text fill="#000000" font-family="sans-serif" font-size="14" lengthAdjust="spacing" textLength="249" x="27" y="410.7891">MatrizRotacao(angulo:double) : void</text><ellipse cx="18" cy="423.4863" fill="#84BE84" rx="3" ry="3" style="stroke:#038048;stroke-width:1.0;"/><text fill="#000000" font-family="sans-serif" font-size="14" lengthAdjust="spacing" textLength="291" x="27" y="427.2773">MatrizRotacaoZBBox(angulo:double) : void</text><ellipse cx="18" cy="439.9746" fill="#84BE84" rx="3" ry="3" style="stroke:#038048;stroke-width:1.0;"/><text fill="#000000" font-family="sans-serif" font-size="14" lengthAdjust="spacing" textLength="120" x="27" y="443.7656">OnUnload() : void</text></g><!--class PrimitiveType--><g id="elem_PrimitiveType"><rect fill="#F1F1F1" height="48" id="PrimitiveType" rx="2.5" ry="2.5" style="stroke:#181818;stroke-width:0.5;" width="124" x="98" y="510.72"/><ellipse cx="113" cy="526.72" fill="#ADD1B2" rx="11" ry="11" style="stroke:#181818;stroke-width:1.0;"/><path d="M115.4731,532.8631 Q114.8921,533.1619 114.2529,533.3113 Q113.6138,533.4607 112.9082,533.4607 Q110.4014,533.4607 109.0815,531.8089 Q107.7617,530.157 107.7617,527.0359 Q107.7617,523.9065 109.0815,522.2547 Q110.4014,520.6028 112.9082,520.6028 Q113.6138,520.6028 114.2612,520.7522 Q114.9087,520.9016 115.4731,521.2005 L115.4731,523.9231 Q114.8423,523.3421 114.2488,523.0723 Q113.6553,522.8025 113.0244,522.8025 Q111.6797,522.8025 110.9949,523.8692 Q110.3101,524.9358 110.3101,527.0359 Q110.3101,529.1277 110.9949,530.1944 Q111.6797,531.261 113.0244,531.261 Q113.6553,531.261 114.2488,530.9912 Q114.8423,530.7215 115.4731,530.1404 Z " fill="#000000"/><text fill="#000000" font-family="sans-serif" font-size="14" lengthAdjust="spacing" textLength="92" x="127" y="532.011">PrimitiveType</text><line style="stroke:#181818;stroke-width:0.5;" x1="99" x2="221" y1="542.72" y2="542.72"/><line style="stroke:#181818;stroke-width:0.5;" x1="99" x2="221" y1="550.72" y2="550.72"/></g><!--class Shader--><g id="elem_Shader"><rect fill="#F1F1F1" height="48" id="Shader" rx="2.5" ry="2.5" style="stroke:#181818;stroke-width:0.5;" width="80" x="257" y="510.72"/><ellipse cx="272" cy="526.72" fill="#ADD1B2" rx="11" ry="11" style="stroke:#181818;stroke-width:1.0;"/><path d="M274.4731,532.8631 Q273.8921,533.1619 273.2529,533.3113 Q272.6138,533.4607 271.9082,533.4607 Q269.4014,533.4607 268.0815,531.8089 Q266.7617,530.157 266.7617,527.0359 Q266.7617,523.9065 268.0815,522.2547 Q269.4014,520.6028 271.9082,520.6028 Q272.6138,520.6028 273.2612,520.7522 Q273.9087,520.9016 274.4731,521.2005 L274.4731,523.9231 Q273.8423,523.3421 273.2488,523.0723 Q272.6553,522.8025 272.0244,522.8025 Q270.6797,522.8025 269.9949,523.8692 Q269.3101,524.9358 269.3101,527.0359 Q269.3101,529.1277 269.9949,530.1944 Q270.6797,531.261 272.0244,531.261 Q272.6553,531.261 273.2488,530.9912 Q273.8423,530.7215 274.4731,530.1404 Z " fill="#000000"/><text fill="#000000" font-family="sans-serif" font-size="14" lengthAdjust="spacing" textLength="48" x="286" y="532.011">Shader</text><line style="stroke:#181818;stroke-width:0.5;" x1="258" x2="336" y1="542.72" y2="542.72"/><line style="stroke:#181818;stroke-width:0.5;" x1="258" x2="336" y1="550.72" y2="550.72"/></g><!--link Objeto to PrimitiveType--><g id="link_Objeto_PrimitiveType"><path codeLine="27" d="M178.49,451.09 C173.2,474.74 169.8616,489.6751 166.5416,504.4951 " fill="none" id="Objeto-to-PrimitiveType" style="stroke:#181818;stroke-width:1.0;"/><polygon fill="#181818" points="165.23,510.35,171.1007,502.4421,166.323,505.4709,163.2942,500.6933,165.23,510.35" style="stroke:#181818;stroke-width:1.0;"/><text fill="#000000" font-family="sans-serif" font-size="13" lengthAdjust="spacing" textLength="83" x="72.9358" y="499.7915">PrimitivaTipo</text></g><!--link Objeto to Shader--><g id="link_Objeto_Shader"><path codeLine="28" d="M278.24,451.09 C283.61,474.74 287.0033,489.6785 290.3633,504.4985 " fill="none" id="Objeto-to-Shader" style="stroke:#181818;stroke-width:1.0;"/><polygon fill="#181818" points="291.69,510.35,293.601,500.6883,290.5845,505.4738,285.799,502.4572,291.69,510.35" style="stroke:#181818;stroke-width:1.0;"/><text fill="#000000" font-family="sans-serif" font-size="13" lengthAdjust="spacing" textLength="84" x="229.4326" y="500.003">ShaderObjeto</text></g><!--SRC=[dPJVIyCm4CVV_Il2dYBEDv_A66nioa3Ps2QeBt9hqkqapPKabJhnVpTfwxhEec8VckJo-LxkBZzY1TQo-UP5EcBlPyn_5snXC4M7hx265FIEMCGIHU3OOB2LRZZqhGtj5qxQaRr5wuu4g0zuZOqtLF1pFpKUKr7RrePYc691It8G0t7f-r6y0nF0Lq9HWrM4_3a3NCeagePzzcp8vQfIz1cLrcjKEwg9yvPyv79Gk0V3JxnFf9NQk-0fE8Fx6mC9HMi3sYPaqX3OrUH4Kguo4XWZQIzCZXTjarLvPeAZY7nLmcnfkfgqWCPNvYYgYKvN8-MaQNDzbf557-VN2jz4jvXctnClCusbXd5kO-37vGnabKydkp1KO4gScieUfTyjdALPE5d6Ly95rbTQRq_YkIlhV-0wPqV-jydHp8JK3WK8sSsL-wV2vZqyFd5NH8BoZP9zvjwQxhxkTdgO-ZmL1FMgKQyQzUflwd3U_-MXlXJXVd3Gsx0plzD_9wl0ViBd-bxxYo-Q0d-SrM_5vUMGzPg70ZFg7TuDkNxBP0jSxVmscShIOzNe4m00]--></g></svg>