<?xml version="1.0" encoding="UTF-8" standalone="no"?><svg xmlns="http://www.w3.org/2000/svg" xmlns:xlink="http://www.w3.org/1999/xlink" contentStyleType="text/css" height="184px" preserveAspectRatio="none" style="width:383px;height:184px;background:#FFFFFF;" version="1.1" viewBox="0 0 383 184" width="383px" zoomAndPan="magnify"><defs/><g><!--MD5=[ef5ff341dffd6737742a54781c8b5648]
class Ponto4D--><g id="elem_Ponto4D"><rect codeLine="1" fill="#F1F1F1" height="163.418" id="Ponto4D" rx="2.5" ry="2.5" style="stroke:#181818;stroke-width:0.5;" width="362" x="7" y="7"/><ellipse cx="154.25" cy="23" fill="#ADD1B2" rx="11" ry="11" style="stroke:#181818;stroke-width:1.0;"/><path d="M156.7231,29.1431 Q156.1421,29.4419 155.5029,29.5913 Q154.8638,29.7407 154.1582,29.7407 Q151.6514,29.7407 150.3315,28.0889 Q149.0117,26.437 149.0117,23.3159 Q149.0117,20.1865 150.3315,18.5347 Q151.6514,16.8828 154.1582,16.8828 Q154.8638,16.8828 155.5112,17.0322 Q156.1587,17.1816 156.7231,17.4805 L156.7231,20.2031 Q156.0923,19.6221 155.4988,19.3523 Q154.9053,19.0825 154.2744,19.0825 Q152.9297,19.0825 152.2449,20.1492 Q151.5601,21.2158 151.5601,23.3159 Q151.5601,25.4077 152.2449,26.4744 Q152.9297,27.541 154.2744,27.541 Q154.9053,27.541 155.4988,27.2712 Q156.0923,27.0015 156.7231,26.4204 Z " fill="#000000"/><text fill="#000000" font-family="sans-serif" font-size="14" lengthAdjust="spacing" textLength="59" x="174.75" y="28.291">Ponto4D</text><line style="stroke:#181818;stroke-width:0.5;" x1="8" x2="368" y1="39" y2="39"/><ellipse cx="18" cy="52.7441" fill="none" rx="3" ry="3" style="stroke:#038048;stroke-width:1.0;"/><text fill="#000000" font-family="sans-serif" font-size="14" lengthAdjust="spacing" textLength="147" x="27" y="56.5352">X : double «get» «set»</text><ellipse cx="18" cy="69.2324" fill="none" rx="3" ry="3" style="stroke:#038048;stroke-width:1.0;"/><text fill="#000000" font-family="sans-serif" font-size="14" lengthAdjust="spacing" textLength="147" x="27" y="73.0234">Y : double «get» «set»</text><ellipse cx="18" cy="85.7207" fill="none" rx="3" ry="3" style="stroke:#038048;stroke-width:1.0;"/><text fill="#000000" font-family="sans-serif" font-size="14" lengthAdjust="spacing" textLength="146" x="27" y="89.5117">Z : double «get» «set»</text><ellipse cx="18" cy="102.209" fill="none" rx="3" ry="3" style="stroke:#038048;stroke-width:1.0;"/><text fill="#000000" font-family="sans-serif" font-size="14" lengthAdjust="spacing" textLength="112" x="27" y="106">W : double «get»</text><line style="stroke:#181818;stroke-width:0.5;" x1="8" x2="368" y1="112.9531" y2="112.9531"/><ellipse cx="18" cy="126.6973" fill="#84BE84" rx="3" ry="3" style="stroke:#038048;stroke-width:1.0;"/><text fill="#000000" font-family="sans-serif" font-size="14" lengthAdjust="spacing" textLength="336" x="27" y="130.4883">Ponto4D(x:double, y:double, z:double, w:double)</text><ellipse cx="18" cy="143.1855" fill="#84BE84" rx="3" ry="3" style="stroke:#038048;stroke-width:1.0;"/><text fill="#000000" font-family="sans-serif" font-size="14" lengthAdjust="spacing" textLength="155" x="27" y="146.9766">Ponto4D(pto:Ponto4D)</text><ellipse cx="18" cy="159.6738" fill="#84BE84" rx="3" ry="3" style="stroke:#038048;stroke-width:1.0;"/><text fill="#000000" font-family="sans-serif" font-size="14" lengthAdjust="spacing" textLength="196" x="27" y="163.4648">«override» ToString() : string</text></g><!--MD5=[b2e421bda474cd9100e1a56e9c5de719]
@startuml
class Ponto4D {
    + Ponto4D(x:double, y:double, z:double, w:double)
    + Ponto4D(pto:Ponto4D)
    + X : double <<get>> <<set>>
    + Y : double <<get>> <<set>>
    + Z : double <<get>> <<set>>
    + W : double <<get>>
    + <<override>> ToString() : string
}
@enduml

PlantUML version 1.2022.7(Mon Aug 22 14:01:30 BRT 2022)
(GPL source distribution)
Java Runtime: OpenJDK Runtime Environment
JVM: OpenJDK 64-Bit Server VM
Default Encoding: UTF-8
Language: en
Country: BR
--></g></svg>